<?xml version="1.0" encoding="UTF-8"?><svg id="Layer_1" xmlns="http://www.w3.org/2000/svg" xmlns:xlink="http://www.w3.org/1999/xlink" viewBox="0 0 605.84 144.2"><defs><style>.cls-1{fill:none;}.cls-1,.cls-2{stroke:#fff;stroke-linecap:square;stroke-linejoin:bevel;stroke-width:7.34px;}.cls-2{fill:url(#linear-gradient);}.cls-3{letter-spacing:.58em;}.cls-4{letter-spacing:.58em;}.cls-5{fill:#fff;font-family:BunkenTechSansSCWide-Bold, BunkenTechSansSCWide-Bold;font-size:39.11px;font-weight:700;}</style><linearGradient id="linear-gradient" x1="69.27" y1="42.79" x2="95.46" y2="42.79" gradientUnits="userSpaceOnUse"><stop offset=".24" stop-color="#fff"/><stop offset=".3" stop-color="#dbeef7"/><stop offset=".41" stop-color="#a1d3ec"/><stop offset=".52" stop-color="#70bbe1"/><stop offset=".62" stop-color="#47a8d9"/><stop offset=".72" stop-color="#289ad3"/><stop offset=".82" stop-color="#128fce"/><stop offset=".92" stop-color="#0489cb"/><stop offset="1" stop-color="#0087cb"/></linearGradient></defs><line class="cls-1" x1="115.09" y1="48.89" x2="98.39" y2="32.73"/><line class="cls-1" x1="66.1" y1="76.24" x2="61.06" y2="71.67"/><line class="cls-2" x1="69.27" y1="29.69" x2="95.46" y2="55.89"/><line class="cls-1" x1="29.36" y1="85.21" x2="48" y2="103.7"/><path class="cls-1" d="M84.08,80.42h0c18.04,0,32.66-14.62,32.66-32.66V26.59S90.78,3.67,90.78,3.67H51.26L26.67,26.59v55.94l2.7,2.68"/><text class="cls-5" transform="translate(164.13 100.1)"><tspan class="cls-3" x="0" y="0">PERPET</tspan><tspan class="cls-4" x="343.92" y="0">U</tspan><tspan x="403.54" y="0">A</tspan></text><line class="cls-1" x1="5.19" y1="111.92" x2="25.08" y2="131.82"/><path class="cls-1" d="M77.5,23.71c-4.73,1.23-21.29,7.12-20.46,29.06,.97,25.58,7.5,36.96,7.5,57.63,0,24.82-14.95,29.24-14.95,29.24"/><line class="cls-1" x1="52.86" y1="133.68" x2="26.67" y2="107.49"/><line class="cls-1" x1="90.78" y1="76.63" x2="73.09" y2="58.93"/></svg>