<?xml version="1.0" encoding="utf-8"?>
<!-- Generator: Adobe Illustrator 26.3.1, SVG Export Plug-In . SVG Version: 6.00 Build 0)  -->
<svg version="1.1" id="Layer_1" xmlns="http://www.w3.org/2000/svg" xmlns:xlink="http://www.w3.org/1999/xlink" x="0px" y="0px"
	 viewBox="0 0 400 400" style="enable-background:new 0 0 400 400;" xml:space="preserve">
<style type="text/css">
	.st0{fill:#FFFFFF;}
</style>
<g>
	<path class="st0" d="M220.9,90.3c-1.5-0.9-3.5-0.9-5,0l-85.8,56.2H67.4c-2.7,0-4.9,2.2-4.9,4.9v96.9c0,2.7,2.2,4.9,4.9,4.9h62.8
		l85.8,56.2c1.5,1,3.4,1.1,5.1,0.3c1.6-0.9,2.6-2.5,2.6-4.3V94.6C223.6,92.8,222.5,91.2,220.9,90.3L220.9,90.3z M126.7,243.4H72.3
		v-86.8h54.4V243.4z M213.7,296.3l-76.9-50.6v-91.4l76.9-50.6V296.3z"/>
	<path class="st0" d="M296.1,113.4c-2.1-1.2-4.8-0.6-6.3,1.3s-1.3,4.7,0.5,6.4c25,19.4,39.6,49.3,39.6,80.9s-14.6,61.5-39.6,80.9
		c-1.7,1.7-1.9,4.5-0.5,6.4c1.5,2,4.2,2.5,6.3,1.3c27.4-21.3,43.4-54,43.4-88.7C339.5,167.4,323.5,134.7,296.1,113.4L296.1,113.4z"
		/>
	<path class="st0" d="M272,131.4c-2.3-1.5-5.3-0.8-6.8,1.5c-1.5,2.3-0.8,5.3,1.5,6.8c21.4,13.5,34.3,37.1,34.3,62.4
		s-13,48.8-34.3,62.4c-2.3,1.5-3,4.5-1.5,6.8c1.5,2.3,4.5,3,6.8,1.5c24.2-15.4,38.9-42,38.9-70.7S296.2,146.7,272,131.4L272,131.4z"
		/>
	<path class="st0" d="M281.8,202.1c0-11.3-3.5-22.3-10-31.5c-6.5-9.2-15.7-16.2-26.3-20c-2.6-0.9-5.4,0.4-6.3,3s0.4,5.4,3,6.3
		c11.7,4.2,21.1,13,26,24.4c4.9,11.4,4.9,24.3,0,35.7c-4.9,11.4-14.4,20.2-26,24.4c-2.6,0.9-3.9,3.7-3,6.3s3.7,3.9,6.3,3
		c10.6-3.8,19.8-10.8,26.3-20C278.3,224.4,281.8,213.4,281.8,202.1L281.8,202.1z"/>
</g>
</svg>
